<?xml version="1.0" standalone="no"?>
<!DOCTYPE svg PUBLIC "-//W3C//DTD SVG 20010904//EN"
 "http://www.w3.org/TR/2001/REC-SVG-20010904/DTD/svg10.dtd">
<svg version="1.0" xmlns="http://www.w3.org/2000/svg"
 width="460.000000pt" height="460.000000pt" viewBox="0 0 460.000000 460.000000"
 preserveAspectRatio="xMidYMid meet">
<metadata>
Created by potrace 1.14, written by Peter Selinger 2001-2017
</metadata>
<g transform="translate(0.000000,460.000000) scale(0.100000,-0.100000)"
fill="#000000" stroke="none">
<path d="M1470 3353 c-23 -9 -60 -45 -76 -75 -12 -23 -14 -181 -14 -978 0
-1032 -3 -976 55 -1030 l27 -25 371 -3 c370 -3 372 -3 390 19 19 24 21 46 7
69 -8 13 -64 16 -372 20 l-363 5 0 945 0 945 788 3 787 2 0 -443 c0 -384 2
-445 16 -465 17 -25 65 -30 83 -8 8 10 11 141 9 485 l-3 471 -26 24 c-14 13
-35 28 -46 35 -16 8 -241 11 -820 10 -439 0 -805 -3 -813 -6z"/>
<path d="M1767 2729 c-32 -25 -35 -61 -7 -89 39 -39 110 -11 110 43 0 50 -63
78 -103 46z"/>
<path d="M2037 2722 c-23 -25 -22 -69 2 -82 12 -6 135 -10 330 -10 268 0 312
2 325 16 21 21 20 57 -2 77 -16 15 -54 17 -329 17 -288 0 -311 -1 -326 -18z"/>
<path d="M1762 2350 c-46 -43 -10 -118 50 -106 59 12 77 70 32 105 -34 26 -54
26 -82 1z"/>
<path d="M2043 2345 c-32 -22 -31 -69 1 -90 21 -14 66 -15 331 -13 290 3 307
4 321 22 18 25 18 47 0 72 -14 18 -31 19 -323 22 -268 2 -311 1 -330 -13z"/>
<path d="M2993 2048 l-41 -41 91 -88 c51 -49 95 -89 98 -89 13 0 79 81 79 97
0 20 -148 163 -170 163 -8 0 -34 -19 -57 -42z"/>
<path d="M1761 1971 c-27 -27 -27 -62 2 -89 29 -27 47 -28 81 -1 45 35 27 93
-32 105 -23 5 -35 1 -51 -15z"/>
<path d="M2032 1958 c-18 -18 -14 -63 6 -81 16 -14 43 -17 173 -17 170 0 192
6 192 53 0 54 -11 57 -192 57 -117 0 -171 -4 -179 -12z"/>
<path d="M2830 1883 c-29 -32 -106 -113 -171 -179 l-119 -122 -30 -113 c-16
-63 -32 -123 -36 -133 -7 -17 -4 -18 32 -12 21 4 66 18 99 31 33 13 73 27 88
31 25 6 118 95 326 313 l61 65 -92 88 c-51 48 -95 88 -99 88 -4 0 -30 -26 -59
-57z"/>
</g>
</svg>
